<svg xmlns="http://www.w3.org/2000/svg" width="504.599" height="224.034" viewBox="0 0 504.599 224.034"><defs><style>.a{fill:#fff;}.b{fill:#e6e6e6;}.c{fill:#2f2e41;}.d{fill:#3f3d56;}.e{fill:#ffb8b8;}.f{fill:#a0616a;}.g{fill:rgba(234,167,42,0.99);}.h{fill:#d2d2d2;}</style></defs><path class="a" d="M365.769,393.757H161.345a10.406,10.406,0,0,1-10.394-10.394V258.544a7.924,7.924,0,0,1,7.915-7.916H368.13a8.042,8.042,0,0,1,8.033,8.033v124.7a10.406,10.406,0,0,1-10.394,10.394Z" transform="translate(-150.951 -250.629)"/><path class="b" d="M365.769,393.757H161.345a10.406,10.406,0,0,1-10.394-10.394V258.544a7.924,7.924,0,0,1,7.915-7.916H368.13a8.042,8.042,0,0,1,8.033,8.033v124.7a10.406,10.406,0,0,1-10.394,10.394Zm-206.9-140.88a5.675,5.675,0,0,0-5.668,5.668V383.362a8.156,8.156,0,0,0,8.147,8.147H365.769a8.156,8.156,0,0,0,8.147-8.147v-124.7a5.792,5.792,0,0,0-5.785-5.786Z" transform="translate(-150.951 -250.629)"/><path class="b" d="M264.476,386.8H203.223a6.19,6.19,0,0,1-6.127-5.373,5.605,5.605,0,0,1-.053-.807V313.055a6.187,6.187,0,0,1,6.18-6.18h61.253a6.187,6.187,0,0,1,6.18,6.18v67.563a6.187,6.187,0,0,1-6.18,6.18Zm-61.253-76.552a2.812,2.812,0,0,0-2.809,2.809v67.563a2.4,2.4,0,0,0,.021.345,2.818,2.818,0,0,0,2.788,2.464h61.253a2.813,2.813,0,0,0,2.809-2.809V313.055a2.812,2.812,0,0,0-2.809-2.809Z" transform="translate(-171.146 -275.273)"/><path class="b" d="M436.357,403.014H362.193a4.495,4.495,0,0,1,0-8.99h74.165a4.495,4.495,0,0,1,0,8.99Z" transform="translate(-241.536 -313.457)"/><path class="b" d="M402.646,369.014H362.193a4.495,4.495,0,0,1,0-8.99h40.453a4.495,4.495,0,0,1,0,8.99Z" transform="translate(-241.536 -298.56)"/><path class="c" d="M266.514,353.226c0,9.93-9.182,8.428-20.508,8.428s-20.508,1.5-20.508-8.428,4.485-27.531,20.508-27.531C262.581,325.695,266.514,343.3,266.514,353.226Z" transform="translate(-183.614 -283.519)"/><path class="d" d="M292.259,401.764a5.093,5.093,0,0,0-2.225-2.719,4.423,4.423,0,0,0-.629-.32,5.087,5.087,0,0,0-6.731,6.444l8.169,18.569H301.6Z" transform="translate(-208.529 -315.346)"/><path class="d" d="M225.12,405.844a5.088,5.088,0,0,0-7.017,2.9l-7.607,17.9a4.427,4.427,0,0,0,1.2.163h9.546l6.45-14.653a5.077,5.077,0,0,0-2.568-6.31Z" transform="translate(-177.04 -318.414)"/><circle class="e" cx="13.8" cy="13.8" r="13.8" transform="translate(48.524 50.519)"/><path class="d" d="M264.666,398.019c-.078-.073-.157-.152-.241-.219a8.963,8.963,0,0,0-7.164-2.231l-25.43,3.219a9.024,9.024,0,0,0-7.877,9.8c.348,3.922.91,8.872,1.809,13.906h40.172l1.478-17.17a9.009,9.009,0,0,0-2.748-7.3Z" transform="translate(-182.919 -314.101)"/><path class="c" d="M233.5,351.3h5.458l2.408-6.742.481,6.742h2.609l1.4-3.933.281,3.933h19.384a14.608,14.608,0,0,0-14.608-14.608h-2.809A14.608,14.608,0,0,0,233.5,351.3Z" transform="translate(-187.119 -288.338)"/><path class="a" d="M648.211,383.362v-124.7a8.042,8.042,0,0,1,8.033-8.033H865.508a7.924,7.924,0,0,1,7.915,7.916V383.362a10.406,10.406,0,0,1-10.394,10.394H658.6A10.406,10.406,0,0,1,648.211,383.362Z" transform="translate(-368.824 -250.629)"/><path class="b" d="M648.211,383.362v-124.7a8.042,8.042,0,0,1,8.033-8.033H865.508a7.924,7.924,0,0,1,7.915,7.916V383.362a10.406,10.406,0,0,1-10.394,10.394H658.6A10.406,10.406,0,0,1,648.211,383.362Zm8.033-130.486a5.792,5.792,0,0,0-5.785,5.786v124.7a8.156,8.156,0,0,0,8.147,8.147H863.029a8.156,8.156,0,0,0,8.147-8.147V258.544a5.675,5.675,0,0,0-5.668-5.668Z" transform="translate(-368.824 -250.629)"/><path class="b" d="M871.938,380.618V313.055a6.187,6.187,0,0,1,6.18-6.18h61.253a6.187,6.187,0,0,1,6.18,6.18v67.563a5.6,5.6,0,0,1-.053.807,6.19,6.19,0,0,1-6.127,5.373H878.118a6.187,6.187,0,0,1-6.18-6.18Zm6.18-70.372a2.812,2.812,0,0,0-2.809,2.809v67.563a2.812,2.812,0,0,0,2.809,2.809h61.253a2.818,2.818,0,0,0,2.788-2.464,2.369,2.369,0,0,0,.021-.345V313.055a2.812,2.812,0,0,0-2.809-2.809Z" transform="translate(-466.849 -275.273)"/><path class="b" d="M694.3,398.52a4.5,4.5,0,0,1,4.495-4.495h74.165a4.495,4.495,0,0,1,0,8.99H698.8a4.5,4.5,0,0,1-4.495-4.495Z" transform="translate(-389.019 -313.457)"/><path class="b" d="M694.3,364.52a4.5,4.5,0,0,1,4.495-4.495H739.25a4.495,4.495,0,0,1,0,8.99H698.8A4.5,4.5,0,0,1,694.3,364.52Z" transform="translate(-389.019 -298.56)"/><path class="c" d="M908.923,341.332c3.939,7.744,7.043,15.732,15.732,15.732a15.732,15.732,0,1,0,0-31.464C915.825,325.49,901.592,326.918,908.923,341.332Z" transform="translate(-482.165 -283.475)"/><circle class="f" cx="13.8" cy="13.8" r="13.8" transform="translate(427.916 46.296)"/><path class="d" d="M938.513,396.381a24.038,24.038,0,0,0-2.893-2.674,23.443,23.443,0,0,0-15.951-4.944q-.345.017-.691.051a23.5,23.5,0,0,0-16.945,9.349,23.792,23.792,0,0,0-4.225,19.187c.152.7.286,1.41.416,2.118h45.746l.528-3.54a23.651,23.651,0,0,0-5.984-19.547Z" transform="translate(-477.957 -311.131)"/><path class="d" d="M970.786,403.759a8.008,8.008,0,0,0-7.827-6.63c-.073,0-.152.006-.225.006a8.062,8.062,0,0,0-1.848.258,7.978,7.978,0,0,0-5.652,9.793l4.321,15.968H974.1Z" transform="translate(-503.224 -314.817)"/><path class="d" d="M908.61,398.1a7.965,7.965,0,0,0-2.3-2.742,7.736,7.736,0,0,0-2.259-1.18,7.5,7.5,0,0,0-1.017-.27,8.019,8.019,0,0,0-9.046,5.192l-7.911,22.581h15.013l7.658-16.608a7.917,7.917,0,0,0-.14-6.973Z" transform="translate(-473.046 -313.345)"/><path class="c" d="M911.064,337.946a18.768,18.768,0,0,0,10.726,3.315,11.5,11.5,0,0,1-4.559,1.875,37.845,37.845,0,0,0,15.459.087,10.006,10.006,0,0,0,3.236-1.111,4.1,4.1,0,0,0,2-2.671c.339-1.938-1.171-3.7-2.74-4.884a20.208,20.208,0,0,0-16.982-3.393A9.3,9.3,0,0,0,913.174,334a4.581,4.581,0,0,0-.423,5.441Z" transform="translate(-483.992 -285.649)"/><path class="a" d="M614.4,537.757H409.975a10.406,10.406,0,0,1-10.394-10.394V402.544a7.924,7.924,0,0,1,7.915-7.916H616.76a8.042,8.042,0,0,1,8.033,8.033v124.7A10.406,10.406,0,0,1,614.4,537.757Z" transform="translate(-259.887 -313.722)"/><path class="g" d="M614.4,537.757H409.975a10.406,10.406,0,0,1-10.394-10.394V402.544a7.924,7.924,0,0,1,7.915-7.916H616.76a8.042,8.042,0,0,1,8.033,8.033v124.7A10.406,10.406,0,0,1,614.4,537.757ZM407.5,396.876a5.675,5.675,0,0,0-5.668,5.668V527.362a8.156,8.156,0,0,0,8.147,8.147H614.4a8.156,8.156,0,0,0,8.147-8.147v-124.7a5.792,5.792,0,0,0-5.786-5.786Z" transform="translate(-259.887 -313.722)"/><path class="b" d="M513.106,530.8H451.853a6.19,6.19,0,0,1-6.127-5.373,5.6,5.6,0,0,1-.053-.807V457.055a6.187,6.187,0,0,1,6.18-6.18h61.253a6.187,6.187,0,0,1,6.18,6.18v67.563A6.187,6.187,0,0,1,513.106,530.8Zm-61.253-76.552a2.812,2.812,0,0,0-2.809,2.809v67.563a2.4,2.4,0,0,0,.021.345,2.818,2.818,0,0,0,2.788,2.464h61.253a2.812,2.812,0,0,0,2.809-2.809V457.055a2.812,2.812,0,0,0-2.809-2.809Z" transform="translate(-280.082 -338.366)"/><path class="c" d="M488.8,471.243c-3.987-1.855-8.883-2.463-12.94-.739s-6.823,6.142-5.512,10.052c.595,1.773,1.95,3.516,1.422,5.307-.406,1.378-1.823,2.288-3.215,2.935a11.98,11.98,0,0,0-3.921,2.282c-1.007,1.091-1.216,2.97.041,3.816.414.279.932.411,1.334.7a2.119,2.119,0,0,1,.654,2.372,5,5,0,0,1-1.6,2.107c-1.427,1.231-3.314,2.64-2.871,4.387a3.078,3.078,0,0,0,2.077,1.943,10.319,10.319,0,0,0,3.049.4l42.12,1.327a15.97,15.97,0,0,0,4.159-.232,4.923,4.923,0,0,0,3.266-2.194,4.573,4.573,0,0,0-.719-4.726,44.832,44.832,0,0,0-3.571-3.774,5.99,5.99,0,0,1-1.913-4.533,11.585,11.585,0,0,1,1.665-3.673c.627-1.2.991-2.707.179-3.814-1.144-1.56-3.892-1.419-5.193-2.873-.982-1.1-.792-2.676-.89-4.091a9.924,9.924,0,0,0-5.945-8.109,11.7,11.7,0,0,0-10.649.725Z" transform="translate(-287.289 -346.382)"/><circle class="f" cx="13.8" cy="13.8" r="13.8" transform="translate(189.266 133.831)"/><path class="d" d="M513.541,558.729a13.366,13.366,0,0,0-7.124-11.743c-.174-.1-.354-.18-.534-.264a13.271,13.271,0,0,0-4.95-1.259l-13.136-.736a13.261,13.261,0,0,0-5.45.837,12.744,12.744,0,0,0-1.242.539,13.225,13.225,0,0,0-3.439,2.444,13.375,13.375,0,0,0-3.967,10.08l.236,5.568,1.652,4.287h36.728a10.087,10.087,0,0,0,1.18-1.787A8.944,8.944,0,0,0,513.541,558.729Z" transform="translate(-292.357 -379.478)"/><path class="d" d="M531.12,552.9a7.946,7.946,0,0,0-2.719-3.225,8.119,8.119,0,0,0-2.815-1.225,8.243,8.243,0,0,0-1.225-.174,7.917,7.917,0,0,0-2.416.208A8.02,8.02,0,0,0,516.782,560l5.051,9.563.253.478h16.963Z" transform="translate(-310.835 -381.036)"/><path class="d" d="M482,546.972a8.057,8.057,0,0,0-2.534-.8,7.807,7.807,0,0,0-1.983-.028,8.01,8.01,0,0,0-6.945,6.343l-3.422,16.6H480.5l2.5-1.023,3.113-11.945A8.045,8.045,0,0,0,482,546.972Z" transform="translate(-289.479 -380.087)"/><path class="c" d="M484.563,496.408a8.555,8.555,0,0,0,7.523-9.052,7.309,7.309,0,0,0,6.26,7.442c2,.22,4.191-.385,5.931.624,1.927,1.117,2.544,3.829,4.552,4.794,1.94.932,4.4-.339,5.362-2.266a8.589,8.589,0,0,0,.088-6.3,17.784,17.784,0,0,0-29.6-7.29,11.386,11.386,0,0,0-3.523,6.781,6.679,6.679,0,0,0,3.289,6.56Z" transform="translate(-295.614 -350.74)"/><path class="b" d="M684.987,547.014H610.823a4.495,4.495,0,0,1,0-8.99h74.165a4.495,4.495,0,0,1,0,8.99Z" transform="translate(-350.473 -376.551)"/><path class="h" d="M651.276,513.014H610.823a4.495,4.495,0,0,1,0-8.99h40.453a4.495,4.495,0,0,1,0,8.99Z" transform="translate(-350.473 -361.654)"/><path class="g" d="M713.4,578.449a14.821,14.821,0,0,0,0,29.641h0a14.821,14.821,0,0,0,0-29.641Z" transform="translate(-390.894 -394.262)"/><path class="a" d="M717.867,605.5a1.8,1.8,0,0,1-1.082-.36l-.019-.014L712.69,602a1.811,1.811,0,1,1,2.2-2.875l2.64,2.024,6.238-8.138a1.81,1.81,0,0,1,2.538-.335h0l-.039.054.04-.054a1.813,1.813,0,0,1,.335,2.539l-7.338,9.568a1.812,1.812,0,0,1-1.441.706Z" transform="translate(-396.764 -400.334)"/></svg>